<svg xmlns="http://www.w3.org/2000/svg" width="170" height="22" viewBox="0 0 170 22">
    <g fill="#06803F" fill-rule="evenodd">
        <path d="M21.934 8c-.014.047-.033.094-.056.14-.174.837-2.533 5.231-3.256 6.009l-.067.065-.93.793L22 17.111l-.036.043C19.51 20.092 15.545 22 11.074 22 6.601 22 2.637 20.092.181 17.154L0 16.931 4.244 15l-.432-.352-.524-.435c-.61-.528-2.77-4.809-3.09-5.938-.031-.045-.059-.09-.083-.139 1.348.914 4.88 1.802 9.244 1.978l.44.016.443.01.689.006.689-.006.333-.007.443-.014c4.254-.16 7.734-.998 9.196-1.884l.144-.091.125-.09.073-.055zM5 11l.277 1.007c.185.593.396 1.156.646 1.728l.196.432.457.901c.054.107.125.201.216.287l.096.083.386.286c.658.444 1.388.761 2.252.996l.33.084.91.18.173.016h.134l.172-.017.937-.184c.873-.21 1.627-.5 2.323-.927l.259-.166.367-.275c.095-.072.176-.158.242-.257l.061-.104.47-.926c.262-.56.489-1.118.69-1.71l.147-.452.259-.94c-.56 1.067-1.67 1.823-3.01 1.954l-.185.014-.196-.023c-.996-.139-1.873-.672-2.428-1.45l-.107-.158-.058-.097-.112.174c-.544.783-1.408 1.33-2.427 1.506l-.206.03-.187.019-.179-.015C6.614 12.856 5.527 12.08 5 11zm6-11c.815 0 1.892.643 3.484 1.915l.243.195.694.575 1.85 1.571 1.331.353c.227.062.434.12.622.174l.356.105.288.09.38.127.227.082.2.079c.886.359 1.325.743 1.325 1.25l-.007.105-.021.102-.073.06-.126.095c-1.374.975-4.97 1.92-9.397 2.094l-.417.014-.335.008-.69.006-.692-.006-.445-.011C5.217 8.842 1.48 7.87.082 6.87.028 6.755 0 6.637 0 6.517 0 5.955.471 5.502 1.497 5.1c-.163-.173-.239-.331-.438-.461.31-.356.883-.648 1.276-.704.782-.13 1.263.103 1.79.145-.408-.175-1.194-.94-1.47-1.288-.33-.745-.095-1.386.106-1.741l.043-.072.072-.11.086-.116.053-.006c.217-.014 1.045-.021 1.298.261.697.99.599 2.03.856 2.487.156-.54.144-1 .489-1.626C6.003 1.244 7.203.39 8.052.56c.042.346.203.486.102.857C9.404.476 10.301 0 11 0z"/>
        <path fill-rule="nonzero" d="M42.136 16.5v-4.054h3.384V16.5h3.11V6.479h-3.11v3.506h-3.384V6.48h-3.097V16.5h3.097zm10.705 0l.485-1.654h3.528l.492 1.654h3.24L56.819 6.479h-3.377L49.676 16.5h3.165zm3.363-3.821h-2.208l1.1-3.603 1.108 3.603zm8.483 3.821v-2.447l1.6-1.675L68.4 16.5h3.815l-3.815-6.241 3.65-3.78h-4.114l-3.248 3.787V6.479h-3.096V16.5h3.096zm11.663 0v-2.447l1.6-1.675 2.112 4.122h3.814l-3.814-6.241 3.65-3.78h-4.115l-3.247 3.787V6.479h-3.097V16.5h3.097zm10.705 0l.485-1.654h3.527l.493 1.654h3.24L91.033 6.479h-3.377L83.89 16.5h3.165zm3.363-3.821H88.21l1.1-3.603 1.108 3.603zm13.166 3.821v-4.095h3.883v-2.023h-3.883v-1.75h4.546V6.479h-7.656V16.5h3.11zm9.44 0V6.479h-3.103V16.5h3.103zm5.155 0v-5.503l3.753 5.503h2.919V6.479h-2.92v5.543l-3.773-5.543h-2.891V16.5h2.912zm10.746 0l.485-1.654h3.528l.492 1.654h3.24l-3.767-10.021h-3.377L125.76 16.5h3.165zm3.363-3.821h-2.208l1.1-3.603 1.108 3.603zm8.306 3.821v-5.503l3.753 5.503h2.919V6.479h-2.92v5.543l-3.773-5.543h-2.891V16.5h2.912zm13.576.178c.898 0 1.637-.13 2.218-.39s1.068-.645 1.46-1.155c.392-.51.679-1.146.861-1.907l-2.714-.82c-.137.633-.356 1.116-.66 1.448-.303.333-.75.5-1.343.5-.61 0-1.084-.207-1.422-.62-.337-.412-.506-1.174-.506-2.286 0-.898.142-1.556.424-1.975.374-.565.912-.848 1.614-.848.31 0 .59.064.84.191.251.128.463.31.636.547.105.142.205.365.3.67l2.735-.608c-.35-1.057-.887-1.841-1.61-2.352-.722-.51-1.714-.765-2.977-.765-1.613 0-2.86.445-3.742 1.336-.882.891-1.323 2.166-1.323 3.825 0 1.244.25 2.265.752 3.062.501.798 1.097 1.355 1.787 1.672.69.316 1.58.475 2.67.475zm14.485-.178v-2.27h-5.345v-1.975h4.819V10.21h-4.82V8.618h5.196v-2.14h-8.299V16.5h8.45z"/>
    </g>
</svg>
